<?xml version="1.0" encoding="UTF-8"?>
<svg version="1.1" viewBox="0 0 2000 2000" width="1280" height="1280" xmlns="http://www.w3.org/2000/svg">
<path transform="translate(0)" d="m0 0h2e3v2e3h-2e3z" fill="#FDFDFD"/>
<path transform="translate(384,849)" d="m0 0h171l31 1 23 3 23 5 24 8 17 8 16 10 13 10 15 14 11 13 12 18 8 15 8 20 6 20 5 25v3h-43l-35-1-5-38-5-23-6-20-6-15-9-17-10-13-12-12-15-10-17-8-18-5-10-2-10-1-68-2v166l-1 1h-71l-1-1-1-134-3-10-5-8-7-6-12-5-17-2-14-1-1-5z" fill="#010101"/>
<path transform="translate(425,1148)" d="m0 0h73v140l1 1h47l20-1 21-3 16-5 16-7 11-7 13-11 11-13 10-17 9-21 7-25 5-25 1-6h75l-2 10-7 20-8 18-6 11-10 15-9 11-11 12-11 9-12 9-15 9-19 9-22 7-25 5-22 2-24 1h-188l-5-2v-4l26-2 12-3 9-5 6-7 4-8 2-10z" fill="#010101"/>
<path transform="translate(969,843)" d="m0 0h24l26 3 15 3 18 6 16 8 10 7 10 9 6 7 6 11 3 10v14l-4 13-7 9-12 8-16 5-6 1h-11l-3-32-4-22-5-15-8-15-6-7-10-7-11-5-13-3h-25l-15 3-12 5-11 7-9 8-8 12-5 13-3 14-1 9v18l2 15 5 17 6 11 8 10 9 9 19 13 10 6-3 1-99-1-5-8-6-18-3-18v-29l3-20 5-15 8-16 10-13 9-9 14-10 19-10 15-5 24-5z" fill="#010101"/>
<path transform="translate(1041,1148)" d="m0 0h77l2 10v34l-4 21-6 16-8 15-8 10-9 10-14 11-15 9-14 6-20 6-22 4-20 2h-22l-29-2-17-3-15-4-16-7-11-6-10-8-8-7-10-13-7-15-3-14v-14l4-16 6-9 9-8 10-5 13-3h10l2 33 3 20 4 15 6 16 7 12 9 11 10 8 14 7 15 4 8 1h19l15-2 15-4 17-9 10-8 7-8 8-14 5-15 2-12 1-11v-9l-2-17-3-12-8-16-7-8z" fill="#010101"/>
<path transform="translate(1365,849)" d="m0 0h38l4 8 11 30 14 37 17 45 15 40 4 10v3h-69l-3-1-15-42-19-56-6-23-1-5h-2l-3 12-13 37-10 29-16 45-3 4h-5l3-11 15-43 10-28 18-51 13-36 1-3z" fill="#010101"/>
<path transform="translate(1443,1148)" d="m0 0h73l12 31 15 40 11 29 7 16 6 11 6 7 10 5 9 2 9 1 2 3-2 2-5 1h-172l-4-2v-4l28-1 15-2 8-3 5-4 3-6 1-5v-10l-4-17-15-43-18-49z" fill="#010101"/>
<path transform="translate(1258,1148)" d="m0 0h6l-1 7-13 37-15 42-5 18-1 11 2 9 4 6 5 4 11 4 11 2 14 1 30 1-1 5-10 1h-135l-7-1v-5l25-1 12-2 10-5 6-5 9-13 9-21 11-31 10-29 12-34z" fill="#010101"/>
<path transform="translate(958,1069)" d="m0 0h12l8 4 5 8 1 9-3 9-8 7-3 1h-12l-6-4-5-5-2-6v-9l4-7 7-6z" fill="#FDFDFD"/>
<path transform="translate(1149,1069)" d="m0 0h13l6 4 5 6 2 5v8l-4 8-7 6-2 1h-13l-5-3-6-7-2-6v-7l4-8 7-6z" fill="#FDFDFD"/>
<path transform="translate(1436,1063)" d="m0 0h2l11 28 7 16 1 5-5-1-5-10v-2l-21 1-5 11-5 1 1-5 16-38z" fill="#010101"/>
<path transform="translate(1258,1064)" d="m0 0h13l8 4 7 8 2 5-2 1-5-5-7-6-7-2-9 1-7 4-4 6-1 3v8l3 8 7 6 2 1h13l7-4 4-5 1-4-7 1h-11l-1-4 10-1h14l-1 9-6 8-8 5-3 1h-11l-10-5-6-7-3-8v-7l3-9 7-8z" fill="#010101"/>
<path transform="translate(1150,1064)" d="m0 0h11l9 4 7 8 2 5 1 8-2 9-7 9-11 5h-10l-10-5-6-7-3-8v-7l4-11 7-7zm-1 5-6 4-5 6-2 5v7l3 8 7 7 3 1h13l8-6 4-6 1-3v-8l-4-8-7-6-2-1z" fill="#010101"/>
<path transform="translate(847,1063)" d="m0 0 5 4 16 24 6 7v-33l3-1 2 1v48l-5-5-10-13-8-12-3-4-1 32-4 1-1-1z" fill="#010101"/>
<path transform="translate(959,1064)" d="m0 0h11l10 5 6 7 2 5v14l-6 10-7 5-6 2h-10l-10-5-6-7-3-8v-7l4-11 7-7zm-1 5-6 4-6 7-1 3v9l3 7 8 7 2 1h12l6-3 6-7 2-7-1-9-5-8-8-4z" fill="#010101"/>
<path transform="translate(758,1064)" d="m0 0h12l10 6 4 5v4l-4-1-7-6-4-2h-11l-6 4-5 6-1 3v9l4 9 5 4 3 1h12l6-4 6-6h2l-1 7-7 6-7 3h-11l-8-4-7-8-3-8v-7l4-11 9-8z" fill="#010101"/>
<path transform="translate(656,1064)" d="m0 0h22v4l-23 1v17h23l-1 4-21 1v16h21l2 4-5 1h-23l-1-1v-46z" fill="#010101"/>
<path transform="translate(1052,1064)" d="m0 0 4 1v42h17v4l-5 1h-15l-2-1v-46z" fill="#010101"/>
<path transform="translate(561,1064)" d="m0 0h20l8 1v3l-9 1h-2v42h-6v-41l-10-2z" fill="#010101"/>
<path transform="translate(1352,1064)" d="m0 0 4 1v46l-4 1-1-1v-46z" fill="#010101"/>
<path transform="translate(1436,1074)" d="m0 0 3 3 6 16v2h-17l2-9z" fill="#FDFDFD"/>
</svg>
